:SAMPLES-PER-SECOND 30
:FULLY-SPECIFIED
:DEGREES
154
root  -18.4638 34.7899 -13.4453 -173.069 5.97076 -179.476
RightUpLeg  -3.30025 -8.974 -5.50436
RightLeg  0.87031 6.49504 -0.317563
RightFoot  8.7531 -0.0460516 1.07698
RightToes  -34.2721 -0.174419 -0.280535
Spine  -4.81071 0.254824 -0.942131
Spine1  -9.63701 0.576891 -0.847632
HEad  -59.9501 -6.99047 10.8037
LeftShoulder1  -1.94126e-019 -3.10601e-018 -2.51263e-017
LeftArm  -89.7134 -31.8626 23.589
LeftForeArm  51.3124 -74.9152 -38.4307
LeftHand  -0.533065 -2.11468 8.44321
RightShoulder  -4.96962e-017 0 -2.36833e-017
RightArm  -94.807 31.271 -30.1688
RightForeArm  58.9317 68.5399 21.8259
RightHand  0.374314 -7.50864 -21.0238
LeftUpLeg  -1.02331 2.64012 5.81882
LeftLeg  4.42884 16.2704 0.208703
LeftFoot  5.19414 -0.0753562 1.67527
LeftToes  -22.9229 1.70063e-006 7.6642e-008
155
root  -18.3738 34.8056 -13.3133 -172.857 7.10074 -179.216
RightUpLeg  -3.78197 -8.51806 -5.06794
RightLeg  0.56456 7.16243 -0.388263
RightFoot  9.17965 -0.0583582 1.22279
RightToes  -34.5141 -0.176283 -0.282084
Spine  -4.87698 0.409545 -0.800361
Spine1  -9.73794 0.867142 -0.588268
HEad  -59.3157 -6.78599 10.0007
LeftShoulder1  -1.94126e-019 -3.10601e-018 -2.51263e-017
LeftArm  -84.0608 -24.1823 18.848
LeftForeArm  115.097 -80.0263 -105.107
LeftHand  -0.757901 -1.87386 12.2867
RightShoulder  -4.96962e-017 0 -2.36833e-017
RightArm  -89.0663 24.1023 -21.6719
RightForeArm  136.101 81.5061 99.2077
RightHand  0.825082 -9.12162 -25.5131
LeftUpLeg  -1.11255 2.67158 6.0872
LeftLeg  4.38885 17.307 0.209754
LeftFoot  5.32406 -0.0847909 1.81518
LeftToes  -23.1746 1.70063e-006 7.6642e-008
156
root  -18.286 34.8192 -13.1798 -172.426 7.87416 -179.021
RightUpLeg  -4.31675 -8.03396 -4.66268
RightLeg  0.103625 7.45737 -0.46428
RightFoot  9.59212 -0.068854 1.31522
RightToes  -34.6649 -0.177328 -0.283193
Spine  -5.06866 0.313681 -0.582916
Spine1  -10.0732 0.642107 -0.173225
HEad  -59.3348 -4.85875 8.48653
LeftShoulder1  -1.94126e-019 -3.10601e-018 -2.51263e-017
LeftArm  -80.704 -17.0778 15.9507
LeftForeArm  149.079 -72.8948 -145.382
LeftHand  -0.825891 -0.905045 15.3384
RightShoulder  -4.96962e-017 0 -2.36833e-017
RightArm  -88.9589 20.1556 -16.8127
RightForeArm  -178.906 72.1982 151.791
RightHand  1.17884 -10.5786 -26.0847
LeftUpLeg  -1.44258 2.81135 6.31981
LeftLeg  4.20783 17.9778 0.16179
LeftFoot  5.54088 -0.0939941 1.95105
LeftToes  -23.2205 1.70063e-006 7.6642e-008
157
root  -18.2232 34.822 -13.0814 -172.073 8.48204 -178.941
RightUpLeg  -4.63298 -8.37863 -4.42511
RightLeg  -0.515924 8.39375 -0.613058
RightFoot  9.94409 -0.0888892 1.51154
RightToes  -35.0491 -0.18019 -0.284222
Spine  -5.31017 0.0999828 -0.421805
Spine1  -10.5121 0.153088 0.0759598
HEad  -59.158 -2.99909 8.28228
LeftShoulder1  -1.94126e-019 -3.10601e-018 -2.51263e-017
LeftArm  -79.461 -14.2899 15.4953
LeftForeArm  152.912 -67.1068 -154.805
LeftHand  -0.764028 0.0619219 16.6924
RightShoulder  -4.96962e-017 0 -2.36833e-017
RightArm  -92.1507 20.0732 -14.9734
RightForeArm  177.469 65.2896 159.624
RightHand  1.43753 -12.5759 -23.1067
LeftUpLeg  -1.58088 3.5199 6.45685
LeftLeg  3.76833 17.9181 0.02611
LeftFoot  5.85836 -0.100256 2.04161
LeftToes  -23.6304 1.70063e-006 7.6642e-008
158
root  -18.1645 34.8135 -13.0387 -171.832 9.11038 -178.832
RightUpLeg  -4.9578 -8.72012 -4.19905
RightLeg  -0.709034 9.28126 -0.708525
RightFoot  10.0719 -0.105575 1.683
RightToes  -35.8156 -0.185258 -0.285173
Spine  -5.51736 0.0626169 -0.319103
Spine1  -10.9257 0.053607 0.192224
HEad  -58.4931 -2.25466 8.52946
LeftShoulder1  -1.94126e-019 -3.10601e-018 -2.51263e-017
LeftArm  -78.9576 -16.7639 16.7259
LeftForeArm  155.722 -67.2569 -154.96
LeftHand  -0.939199 -1.19943 16.6506
RightShoulder  -4.96962e-017 0 -2.36833e-017
RightArm  -95.0591 23.5427 -16.4924
RightForeArm  172.857 67.1032 157.373
RightHand  1.53374 -13.042 -23.1297
LeftUpLeg  -1.3909 4.65369 6.64874
LeftLeg  3.09649 17.4388 -0.175837
LeftFoot  6.14948 -0.102963 2.07819
LeftToes  -24.145 1.70063e-006 7.6642e-008
159
root  -18.0963 34.8039 -13.0523 -171.734 9.54709 -178.641
RightUpLeg  -5.07028 -9.01073 -3.92786
RightLeg  -0.72059 10.0323 -0.767148
RightFoot  10.0485 -0.117462 1.81661
RightToes  -36.3152 -0.189736 -0.286049
Spine  -5.49783 0.137085 -0.306695
Spine1  -10.9203 0.239676 0.207414
HEad  -58.11 -2.31831 8.93434
LeftShoulder1  -1.94126e-019 -3.10601e-018 -2.51263e-017
LeftArm  -79.5048 -22.9899 19.7257
LeftForeArm  151.994 -73.7298 -144.057
LeftHand  -1.00417 -1.87721 16.1762
RightShoulder  -4.96962e-017 0 -2.36833e-017
RightArm  -97.7762 28.7467 -21.1078
RightForeArm  160.936 76.8855 137.642
RightHand  1.35489 -11.737 -24.5773
LeftUpLeg  -1.02666 5.67735 6.96145
LeftLeg  2.50879 16.8566 -0.340534
LeftFoot  6.37955 -0.103589 2.08258
LeftToes  -24.7061 1.70063e-006 7.6642e-008
160
root  -18.031 34.803 -13.0727 -171.897 9.79909 -178.502
RightUpLeg  -4.87238 -8.90352 -3.76696
RightLeg  -0.724222 10.272 -0.785912
RightFoot  10.0571 -0.122025 1.8703
RightToes  -36.4937 -0.191937 -0.286854
Spine  -5.322 0.199147 -0.340988
Spine1  -10.6108 0.432904 0.149147
HEad  -58.417 -3.07994 9.40613
LeftShoulder1  -1.94126e-019 -3.10601e-018 -2.51263e-017
LeftArm  -82.4291 -31.1889 24.2021
LeftForeArm  93.8773 -80.302 -83.6951
LeftHand  -0.776565 -1.3513 13.5165
RightShoulder  -4.96962e-017 0 -2.36833e-017
RightArm  -102.544 34.286 -28.7675
RightForeArm  71.2321 77.1377 41.9932
RightHand  1.05499 -10.5913 -23.4928
LeftUpLeg  -0.660249 5.72461 7.19416
LeftLeg  2.38078 17.0126 -0.381042
LeftFoot  6.44819 -0.106711 2.12544
LeftToes  -24.7513 1.70063e-006 7.6642e-008
161
root  -17.9746 34.8021 -13.0832 -172.124 10.0141 -178.365
RightUpLeg  -4.63207 -8.68081 -3.60294
RightLeg  -0.724854 10.2969 -0.787869
RightFoot  10.1214 -0.123721 1.89621
RightToes  -36.3821 -0.193362 -0.287591
Spine  -5.15881 0.199368 -0.353972
Spine1  -10.3117 0.503689 0.103919
HEad  -58.8492 -3.85197 9.88355
LeftShoulder1  -1.94126e-019 -3.10601e-018 -2.51263e-017
LeftArm  -88.4385 -39.1204 30.4793
LeftForeArm  37.2396 -68.4672 -25.2911
LeftHand  -0.538866 -1.18234 9.66784
RightShoulder  -4.96962e-017 0 -2.36833e-017
RightArm  -110.394 38.7897 -39.3999
RightForeArm  43.9828 55.1853 12.2518
RightHand  0.585461 -9.00922 -19.2024
LeftUpLeg  -0.493998 5.49738 7.39659
LeftLeg  2.7322 17.424 -0.284744
LeftFoot  6.35308 -0.108489 2.14878
LeftToes  -24.3098 1.70063e-006 7.6642e-008
162
root  -17.9388 34.8065 -13.0632 -172.256 10.3421 -178.294
RightUpLeg  -4.57105 -8.00842 -3.49525
RightLeg  -0.719072 9.93655 -0.759655
RightFoot  10.2165 -0.120572 1.855
RightToes  -36.0139 -0.194161 -0.288262
Spine  -5.05064 0.147297 -0.321297
Spine1  -10.105 0.478535 0.167201
HEad  -58.9718 -4.3971 9.96277
LeftShoulder1  -1.94126e-019 -3.10601e-018 -2.51263e-017
LeftArm  -95.6751 -44.6768 37.2226
LeftForeArm  29.3142 -52.5524 -12.3078
LeftHand  -0.458419 -1.61226 7.77269
RightShoulder  -4.96962e-017 0 -2.36833e-017
RightArm  -118.713 40.8388 -51.4606
RightForeArm  40.7492 29.8476 4.15973
RightHand  0.253839 -7.51697 -14.9524
LeftUpLeg  -0.547202 5.50099 7.49899
LeftLeg  3.25381 17.6944 -0.130529
LeftFoot  6.25532 -0.108786 2.15225
LeftToes  -24.2923 1.70063e-006 7.6642e-008
163
root  -17.9048 34.8525 -13.0186 -172.272 10.7999 -178.273
RightUpLeg  -4.77176 -7.24526 -3.40156
RightLeg  -0.576463 9.57639 -0.708563
RightFoot  10.3092 -0.117205 1.8016
RightToes  -35.6833 -0.194483 -0.288871
Spine  -4.87196 0.150875 -0.098853
Spine1  -9.76703 0.717907 0.476415
HEad  -59.5382 -4.40087 9.71082
LeftShoulder1  -1.94126e-019 -3.10601e-018 -2.51263e-017
LeftArm  -101.254 -47.1678 39.5955
LeftForeArm  29.1317 -43.9806 -8.80292
LeftHand  -0.494836 -1.90606 8.06112
RightShoulder  -4.96962e-017 0 -2.36833e-017
RightArm  -121.221 41.2328 -58.37
RightForeArm  42.8671 18.9787 1.91259
RightHand  0.0541487 -6.16463 -11.3117
LeftUpLeg  -0.677206 5.72077 7.52732
LeftLeg  3.64866 17.9148 -0.0106912
LeftFoot  6.17512 -0.108649 2.15569
LeftToes  -23.7845 1.70063e-006 7.6642e-008
164
root  -17.8894 34.8486 -12.962 -172.266 11.7008 -178.229
RightUpLeg  -5.17961 -6.45525 -3.34009
RightLeg  -0.253215 9.68016 -0.661421
RightFoot  10.2758 -0.120109 1.81758
RightToes  -35.3283 -0.194478 -0.289421
Spine  -4.79096 -0.0194673 -0.113412
Spine1  -9.61696 0.397556 0.502676
HEad  -59.8205 -4.15191 10.0924
LeftShoulder1  -1.94126e-019 -3.10601e-018 -2.51263e-017
LeftArm  -103.259 -47.7147 36.5117
LeftForeArm  26.1929 -44.9794 -9.35339
LeftHand  -0.54671 -1.60823 9.24147
RightShoulder  -4.96962e-017 0 -2.36833e-017
RightArm  -118.961 41.7917 -56.8146
RightForeArm  46.4128 19.7167 1.89258
RightHand  -0.165545 -3.26329 -8.35368
LeftUpLeg  -0.652126 6.53968 7.54356
LeftLeg  3.87348 18.0358 0.0588194
LeftFoot  6.11489 -0.107657 2.15241
LeftToes  -23.6826 1.70063e-006 7.6642e-008
165
root  -17.8798 34.8026 -12.9036 -172.215 13.0883 -178.121
RightUpLeg  -5.54863 -5.49546 -3.2617
RightLeg  -0.250737 10.1049 -0.689614
RightFoot  10.467 -0.13323 1.93374
RightToes  -35.6428 -0.194295 -0.289914
Spine  -4.70797 -0.279795 -0.165539
Spine1  -9.4395 -0.317373 0.619523
HEad  -59.5919 -3.98328 10.3956
LeftShoulder1  -1.94126e-019 -3.10601e-018 -2.51263e-017
LeftArm  -99.7978 -45.4507 29.3422
LeftForeArm  22.2881 -54.2733 -13.8204
LeftHand  -0.504179 0.0596022 11.0492
RightShoulder  -4.96962e-017 0 -2.36833e-017
RightArm  -110.902 41.5595 -48.9811
RightForeArm  44.9435 30.4604 4.10514
RightHand  -0.0606494 -4.95363 -11.6584
LeftUpLeg  -0.43474 7.58286 7.60083
LeftLeg  3.92284 18.3109 0.0751947
LeftFoot  6.0777 -0.107947 2.17179
LeftToes  -23.9023 1.70063e-006 7.6642e-008
166
root  -17.8517 34.7953 -12.8454 -172.039 14.6004 -177.937
RightUpLeg  -5.95921 -4.79586 -3.06349
RightLeg  -0.418671 10.8985 -0.774914
RightFoot  10.6733 -0.153421 2.11721
RightToes  -35.8266 -0.194084 -0.290355
Spine  -4.62539 -0.217632 -0.106279
Spine1  -9.28966 -0.198315 0.73575
HEad  -59.5124 -4.55764 10.4375
LeftShoulder1  -1.94126e-019 -3.10601e-018 -2.51263e-017
LeftArm  -93.9459 -40.9501 20.1968
LeftForeArm  27.2281 -68.2015 -26.4714
LeftHand  -0.495528 0.59807 12.0302
RightShoulder  -4.96962e-017 0 -2.36833e-017
RightArm  -99.8787 37.8086 -35.7118
RightForeArm  42.8133 53.9939 11.7719
RightHand  0.325988 -7.92264 -15.8309
LeftUpLeg  -0.23878 8.62822 7.72506
LeftLeg  3.88363 18.7032 0.0641935
LeftFoot  6.00024 -0.108514 2.1944
LeftToes  -24.1109 1.70063e-006 7.6642e-008
